<?xml version="1.0" standalone="no"?>
<!DOCTYPE svg PUBLIC "-//W3C//DTD SVG 20010904//EN"
 "http://www.w3.org/TR/2001/REC-SVG-20010904/DTD/svg10.dtd">
<svg version="1.0" xmlns="http://www.w3.org/2000/svg"
 width="700.000000pt" height="700.000000pt" viewBox="0 0 700.000000 700.000000"
 preserveAspectRatio="xMidYMid meet">
<metadata>
Created by potrace 1.14, written by Peter Selinger 2001-2017
</metadata>
<g transform="translate(0.000000,700.000000) scale(0.100000,-0.100000)"
fill="#000000" stroke="none">
<path d="M3748 6978 c-9 -7 -23 -36 -32 -64 -9 -28 -23 -60 -31 -70 -8 -10
-15 -33 -15 -50 0 -17 -5 -45 -11 -62 l-11 -31 -54 40 -54 40 -273 -203 c-149
-111 -369 -274 -487 -361 -118 -88 -261 -194 -317 -236 -56 -42 -114 -85 -128
-95 -136 -101 -332 -247 -340 -253 -5 -5 -158 -118 -340 -253 -181 -135 -334
-248 -340 -253 -5 -4 -107 -79 -225 -167 -118 -88 -222 -165 -232 -172 -9 -7
-124 -93 -256 -190 l-239 -178 0 -495 c0 -273 4 -498 8 -500 4 -3 58 19 121
49 62 29 136 63 163 76 28 12 79 36 115 52 123 57 336 151 530 234 107 46 203
89 212 94 10 6 22 10 28 10 5 0 33 11 62 24 84 38 337 142 543 222 105 41 199
79 210 84 11 5 58 23 105 40 47 17 96 36 110 42 54 22 343 128 351 128 10 0 4
-30 -16 -90 -8 -25 -20 -65 -26 -90 -12 -47 -26 -64 -159 -181 -41 -36 -120
-106 -175 -154 -124 -109 -191 -176 -187 -187 1 -4 -4 -8 -12 -8 -8 0 -26 -13
-39 -30 -14 -17 -28 -30 -32 -30 -14 0 -112 -85 -133 -116 -12 -19 -26 -34
-30 -34 -4 0 -29 -21 -57 -46 -27 -25 -90 -83 -139 -127 -49 -45 -103 -92
-120 -105 -17 -13 -30 -28 -29 -33 2 -5 -7 -9 -19 -9 -12 0 -33 -10 -46 -22
l-25 -23 13 24 c16 31 77 119 103 147 15 18 17 31 12 65 -8 52 -23 75 -56 88
-36 13 -60 -4 -204 -149 -71 -72 -143 -138 -160 -146 -41 -20 -55 -32 -93 -81
-18 -23 -69 -72 -113 -108 l-80 -67 -34 36 c-18 20 -37 36 -41 36 -11 0 -135
-103 -188 -156 -26 -27 -95 -106 -153 -177 l-104 -127 -107 -53 -107 -52 -1
-97 -1 -97 -52 -65 c-28 -36 -51 -74 -51 -85 0 -11 11 -28 25 -39 14 -11 25
-22 25 -26 0 -10 -223 -173 -268 -195 -23 -12 -42 -26 -42 -33 0 -22 44 -98
57 -98 23 0 84 35 193 113 58 41 107 73 109 71 2 -2 5 -363 5 -801 l1 -798
737 0 c406 0 737 -2 735 -5 -1 -3 -17 -33 -35 -67 -50 -97 -41 -162 29 -199
27 -14 82 -14 96 0 3 3 19 -6 35 -19 51 -43 68 -42 159 16 101 62 204 138 294
215 l67 56 2111 1 2112 2 1 1078 c0 592 -2 1077 -5 1077 -20 0 -744 -191
-1026 -270 -82 -23 -179 -50 -215 -60 -36 -10 -153 -43 -260 -75 -107 -31
-202 -58 -210 -60 -81 -19 -824 -250 -1230 -382 -179 -59 -329 -108 -335 -109
-26 -6 -566 -194 -576 -200 -8 -4 -9 1 -3 17 4 13 8 31 9 39 1 8 11 47 22 85
12 39 29 97 38 130 9 33 23 78 31 100 8 22 16 63 18 90 3 45 22 119 88 350 10
39 24 102 29 140 5 39 11 85 14 103 2 17 13 63 25 101 11 38 25 91 30 117 18
87 21 96 56 213 20 64 37 137 40 163 2 25 10 64 19 85 8 21 16 56 17 78 2 22
7 43 11 46 4 3 10 20 12 37 2 17 27 117 55 222 28 104 53 202 56 218 2 15 21
42 42 60 51 45 240 172 256 172 8 0 21 11 30 25 9 13 44 38 78 55 34 17 73 42
87 57 14 14 46 35 70 46 24 11 54 29 66 41 12 12 71 52 133 90 148 93 163 107
158 154 -4 32 0 41 30 68 19 17 85 57 147 89 61 32 135 72 162 88 28 16 100
56 162 88 93 49 114 57 125 46 7 -8 49 -53 93 -102 44 -49 103 -114 131 -144
28 -31 63 -70 78 -87 l26 -32 -126 -103 c-70 -57 -131 -109 -138 -114 -6 -6
-45 -39 -86 -74 -41 -35 -99 -84 -129 -110 -81 -69 -385 -334 -391 -341 -3 -3
-54 -50 -115 -105 -299 -270 -925 -873 -985 -950 -14 -17 -13 -18 5 -11 25 10
584 186 605 191 8 2 114 33 235 70 208 63 371 112 405 121 8 2 148 42 310 89
529 153 1531 422 1637 440 18 3 42 9 55 14 13 5 25 8 28 8 15 -1 110 26 111
31 4 29 3 886 -1 892 -3 4 -140 107 -305 230 -317 235 -344 255 -360 267 -5 5
-88 66 -183 137 -157 117 -171 130 -158 145 8 9 16 34 18 54 1 21 8 43 15 49
24 20 -18 125 -54 134 -30 8 -29 18 5 40 15 9 43 34 62 54 19 19 66 58 104 85
38 26 86 64 105 84 20 20 91 74 159 121 103 72 122 89 121 110 -2 48 2 55 40
73 21 10 53 32 72 48 35 30 42 33 73 29 37 -4 149 130 140 168 -3 12 27 39
108 97 62 44 115 82 118 85 3 3 51 38 108 78 60 43 102 80 102 90 0 22 -32
105 -43 113 -8 6 -116 -46 -127 -61 -3 -4 -47 -28 -99 -54 -101 -51 -238 -129
-414 -235 -62 -38 -128 -76 -147 -86 -19 -10 -37 -21 -40 -24 -10 -14 -68 -51
-79 -51 -6 0 -46 -24 -88 -53 -43 -29 -90 -59 -104 -66 -14 -7 -48 -29 -75
-50 -27 -20 -80 -55 -118 -76 -103 -60 -126 -74 -233 -146 -95 -65 -154 -99
-169 -99 -4 0 17 15 47 33 93 57 99 61 105 79 3 10 12 18 19 18 8 0 21 10 29
23 8 12 32 31 53 42 42 21 165 102 229 149 23 17 56 39 75 50 19 10 29 21 23
23 -7 2 -10 12 -7 22 12 47 -25 33 -217 -82 -47 -28 -110 -69 -140 -92 -90
-69 -248 -169 -363 -230 l-107 -57 -72 54 c-70 51 -337 250 -388 288 -81 61
-524 389 -571 424 -42 30 -59 49 -63 72 -8 40 -43 77 -65 69 -37 -16 -48 -14
-85 18 l-38 33 26 51 c14 28 37 68 51 89 55 82 53 159 -6 189 -34 18 -31 18
-51 3z m2766 -623 c-4 -8 -11 -15 -16 -15 -6 0 -5 6 2 15 7 8 14 15 16 15 2 0
1 -7 -2 -15z m-54 -36 c-14 -11 -45 -32 -70 -46 -25 -15 -103 -69 -174 -121
-71 -51 -140 -99 -155 -105 -60 -25 -231 -150 -231 -169 0 -10 -4 -18 -10 -18
-5 0 -10 -7 -10 -15 0 -9 -7 -18 -15 -21 -8 -4 -15 -13 -15 -21 0 -8 -5 -11
-11 -8 -15 10 -70 -15 -62 -29 3 -6 3 -8 -2 -4 -4 4 -29 -7 -54 -25 -25 -18
-51 -36 -57 -40 -8 -4 -12 10 -13 46 -1 69 11 81 186 173 48 26 133 77 188
113 55 36 109 71 120 77 11 6 47 26 80 44 33 18 101 58 150 89 146 93 160 101
170 101 6 0 -1 -9 -15 -21z m-386 -474 c-10 -8 -23 -14 -29 -14 -5 0 -1 6 9
14 11 8 24 15 30 15 5 0 1 -7 -10 -15z m-64 -28 c0 -2 -12 -14 -27 -28 -15
-13 -22 -17 -15 -8 6 9 8 20 4 24 -4 5 -2 5 5 1 6 -3 14 -2 18 4 6 10 15 14
15 7z m-60 -50 c0 -2 -10 -12 -22 -23 l-23 -19 19 23 c18 21 26 27 26 19z
m-1276 -727 c-11 -11 -79 -63 -198 -150 -41 -30 -75 -60 -76 -67 0 -6 -24 -28
-52 -49 -29 -22 -57 -42 -63 -47 -82 -65 -285 -220 -335 -256 -36 -25 -73 -56
-83 -69 -11 -12 -42 -34 -70 -49 -29 -14 -70 -41 -93 -59 -23 -19 -46 -34 -52
-34 -6 0 -19 -10 -29 -22 -31 -38 -43 -33 -43 16 0 41 4 47 50 84 28 23 92 67
142 99 49 32 114 77 144 101 30 23 80 59 112 79 31 20 75 51 97 68 22 17 65
46 95 65 30 18 57 36 60 39 8 11 106 71 116 71 5 0 36 25 69 55 33 30 68 55
78 55 9 0 17 4 17 9 0 14 82 69 105 70 12 1 16 -2 9 -9z m76 -71 c0 -14 -36
-45 -75 -65 l-30 -16 30 26 c17 14 33 25 36 26 4 0 9 9 12 20 5 21 27 28 27 9z
m-630 -83 c0 -8 -442 -338 -446 -333 -1 1 3 30 10 64 l11 63 90 66 c84 62 117
81 155 89 8 2 49 15 90 29 77 25 90 29 90 22z m382 -174 c-6 -2 -22 -14 -37
-28 -40 -37 -39 -29 2 24 32 41 39 45 41 28 2 -11 -1 -22 -6 -24z m-1052 -46
c0 -3 -4 -8 -10 -11 -5 -3 -10 -1 -10 4 0 6 5 11 10 11 6 0 10 -2 10 -4z m-23
-244 c-15 -15 -34 -36 -42 -47 -7 -11 -17 -17 -21 -12 -9 8 64 87 81 87 5 0
-3 -12 -18 -28z m-107 -359 c-24 -50 -51 -65 -44 -25 4 24 51 78 60 69 2 -2
-5 -22 -16 -44z m-676 -455 c-4 -7 -20 -32 -35 -54 -16 -23 -25 -44 -22 -48 6
-6 -20 -10 -46 -7 -7 2 -10 -2 -6 -8 3 -6 1 -11 -4 -11 -6 0 -11 5 -11 12 0 6
-11 1 -25 -12 -13 -12 -22 -26 -20 -31 3 -4 -5 -11 -17 -14 -13 -4 -44 -23
-71 -41 -61 -44 -70 -43 -17 1 23 19 36 35 28 35 -15 0 26 36 87 78 22 15 65
46 95 69 55 43 77 54 64 31z m552 -225 c-3 -16 -8 -50 -11 -76 -3 -26 -12 -64
-20 -84 -8 -19 -12 -39 -9 -44 3 -5 -2 -33 -12 -61 -9 -29 -18 -59 -19 -67 -1
-9 -9 -32 -17 -51 -9 -19 -18 -52 -21 -74 -3 -21 -9 -41 -14 -45 -11 -7 -36
-117 -30 -128 3 -5 0 -19 -5 -32 l-9 -25 -19 31 c-10 17 -25 35 -33 40 -11 7
-6 28 30 123 25 63 48 124 53 135 32 75 90 245 90 262 0 12 5 25 10 28 6 3 10
15 10 25 0 19 20 70 27 70 3 0 2 -12 -1 -27z m-153 -158 c-3 -9 -8 -14 -10
-11 -3 3 -2 9 2 15 9 16 15 13 8 -4z m-31 -67 c-7 -7 -12 -8 -12 -2 0 6 3 14
7 17 3 4 9 5 12 2 2 -3 -1 -11 -7 -17z m-1485 -55 c1 -27 3 -56 5 -66 2 -14
-26 -30 -139 -81 -82 -37 -143 -59 -143 -52 0 6 10 18 22 26 12 8 28 23 37 33
39 43 104 102 158 142 32 24 58 44 58 44 1 1 1 -20 2 -46z m1462 -7 c-7 -20
-16 -36 -21 -36 -4 0 -5 6 -3 13 19 55 26 69 31 64 3 -3 0 -22 -7 -41z m-173
-159 c-7 -20 -15 -40 -19 -43 -4 -4 -7 -18 -7 -30 0 -13 -4 -25 -9 -28 -4 -3
-11 -20 -15 -37 -3 -18 -8 -30 -11 -28 -2 3 2 28 10 57 7 29 13 55 13 58 1 10
44 95 48 92 2 -2 -3 -20 -10 -41z m-250 -82 c-9 -36 -30 -66 -98 -138 -106
-113 -227 -274 -229 -304 -1 -13 -2 -29 -3 -35 -1 -7 10 -31 26 -52 l28 -40
-24 -25 c-28 -30 -22 -58 20 -102 21 -22 32 -26 62 -22 20 3 41 9 47 14 12 12
28 12 21 0 -3 -5 -8 -28 -11 -51 -3 -22 -14 -74 -25 -113 -10 -40 -24 -90 -29
-113 -7 -25 -42 -81 -93 -147 -292 -376 -332 -458 -254 -531 18 -17 36 -44 40
-59 4 -18 20 -36 43 -49 l36 -22 -43 -14 -44 -15 -80 85 c-45 47 -135 143
-201 213 -66 71 -159 170 -206 219 -47 50 -106 114 -132 142 l-47 51 83 84
c46 46 116 122 157 168 41 47 82 92 90 101 8 9 33 36 54 60 60 69 181 203 285
317 l93 103 24 -25 c13 -14 29 -25 36 -25 7 0 94 83 193 185 99 102 183 185
186 185 4 0 2 -20 -5 -45z m447 -250 c-3 -9 -8 -14 -10 -11 -3 3 -2 9 2 15 9
16 15 13 8 -4z m-491 -52 c-5 -26 -46 -69 -91 -96 -46 -27 -39 -5 26 79 44 57
59 70 64 57 3 -9 4 -27 1 -40z m463 -23 c-8 -27 -14 -36 -14 -23 -1 21 19 76
25 70 2 -1 -3 -23 -11 -47z m-91 -287 c-2 -23 -10 -56 -18 -75 -14 -32 -14
-32 -10 32 3 36 7 74 9 85 2 11 4 31 6 45 1 20 3 19 8 -10 4 -19 6 -54 5 -77z
m-51 -18 c4 -8 2 -17 -3 -20 -6 -4 -10 3 -10 14 0 25 6 27 13 6z m-96 -62 c-6
-37 -12 -87 -21 -183 -4 -41 -11 -89 -21 -145 -2 -11 -4 -36 -4 -55 -1 -33 -4
-37 -43 -48 -24 -7 -49 -15 -55 -18 -8 -4 -3 21 13 62 18 47 24 78 19 101 -4
22 1 47 13 75 11 24 23 54 27 68 4 14 15 41 25 60 10 19 23 54 30 78 16 52 25
55 17 5z m110 -90 c-3 -10 -5 -4 -5 12 0 17 2 24 5 18 2 -7 2 -21 0 -30z
m-394 -368 c-3 -9 -8 -14 -10 -11 -3 3 -2 9 2 15 9 16 15 13 8 -4z m167 -137
c0 -7 -11 -33 -25 -57 -14 -23 -25 -51 -25 -61 0 -10 -6 -23 -14 -29 -7 -6
-30 -40 -50 -74 -20 -34 -46 -73 -56 -87 l-20 -25 14 45 c7 25 19 59 25 75 7
17 14 47 15 67 4 43 26 81 75 125 38 34 61 42 61 21z m-276 -243 c-4 -8 -10
-12 -15 -9 -11 6 -2 24 11 24 5 0 7 -7 4 -15z m-154 -215 c-6 -11 -13 -20 -16
-20 -2 0 0 9 6 20 6 11 13 20 16 20 2 0 0 -9 -6 -20z m-114 -790 c14 0 23 -4
20 -9 -9 -15 -206 -144 -212 -139 -2 3 10 36 28 74 31 65 35 69 73 75 22 3 46
4 53 3 8 -2 25 -4 38 -4z"/>
</g>
</svg>
